<?xml version="1.0" standalone="no"?>
<!DOCTYPE svg PUBLIC "-//W3C//DTD SVG 20010904//EN"
 "http://www.w3.org/TR/2001/REC-SVG-20010904/DTD/svg10.dtd">
<svg version="1.0" xmlns="http://www.w3.org/2000/svg"
 width="512.000000pt" height="512.000000pt" viewBox="0 0 512.000000 512.000000"
 preserveAspectRatio="xMidYMid meet">
<metadata>
Created by potrace 1.14, written by Peter Selinger 2001-2017
</metadata>
<g transform="translate(0.000000,512.000000) scale(0.100000,-0.100000)"
fill="#000000" stroke="none">
<path d="M0 2560 l0 -2560 2560 0 2560 0 0 2560 0 2560 -2560 0 -2560 0 0
-2560z m4920 0 l0 -2360 -2360 0 -2360 0 0 2360 0 2360 2360 0 2360 0 0 -2360z"/>
<path d="M2383 3235 c-81 -18 -174 -68 -219 -118 -126 -138 -118 -346 18 -472
67 -64 144 -97 347 -150 194 -51 217 -61 256 -107 23 -27 26 -39 23 -79 -6
-62 -37 -102 -104 -135 -112 -54 -282 -30 -353 51 -26 30 -71 129 -71 156 0 7
-15 9 -37 5 -21 -3 -77 -8 -125 -11 -104 -8 -103 -6 -63 -134 44 -138 131
-232 262 -281 163 -61 446 -42 578 40 51 31 114 106 143 168 24 50 27 70 27
157 0 89 -3 106 -28 157 -57 116 -155 181 -349 233 -295 78 -351 104 -364 169
-14 78 61 136 190 144 40 2 91 -1 116 -8 60 -16 115 -73 132 -135 l13 -48 74
7 c41 3 99 6 129 6 l55 0 -6 55 c-12 120 -104 248 -212 296 -107 47 -301 62
-432 34z"/>
<path d="M3693 3235 c-101 -22 -214 -87 -283 -163 -114 -124 -161 -264 -163
-482 -1 -232 47 -373 172 -500 112 -114 237 -164 411 -164 259 0 428 120 511
361 10 29 15 54 11 57 -6 3 -143 47 -218 70 -19 6 -24 -1 -44 -56 -56 -157
-176 -235 -317 -208 -179 33 -263 175 -263 446 0 214 60 343 189 406 65 32
197 33 257 1 56 -30 111 -89 131 -141 14 -38 19 -42 42 -38 14 3 69 13 121 21
52 9 97 18 99 21 3 2 -3 29 -12 58 -36 113 -128 217 -244 275 -98 49 -269 64
-400 36z"/>
<path d="M1127 3113 c-25 -65 -89 -228 -142 -363 -202 -512 -267 -677 -290
-737 l-24 -63 137 0 138 0 50 138 49 137 260 3 260 2 22 -57 c12 -32 36 -95
53 -140 l32 -83 139 0 c76 0 139 2 139 5 0 3 -59 150 -130 328 -72 177 -188
463 -257 635 l-126 312 -132 0 -132 0 -46 -117z m264 -430 c44 -113 79 -212
79 -219 0 -11 -32 -14 -163 -14 -90 0 -166 2 -169 5 -3 3 28 94 68 203 94 256
95 260 101 244 3 -8 41 -106 84 -219z"/>
</g>
</svg>
