<?xml version="1.0" standalone="no"?>
<!DOCTYPE svg PUBLIC "-//W3C//DTD SVG 20010904//EN"
 "http://www.w3.org/TR/2001/REC-SVG-20010904/DTD/svg10.dtd">
<svg version="1.0" xmlns="http://www.w3.org/2000/svg"
 width="512.000000pt" height="512.000000pt" viewBox="0 0 512.000000 512.000000"
 preserveAspectRatio="xMidYMid meet">
<metadata>
Created by potrace 1.14, written by Peter Selinger 2001-2017
</metadata>
<g transform="translate(0.000000,512.000000) scale(0.100000,-0.100000)"
fill="#000000" stroke="none">
<path d="M2429 3249 c-113 -26 -237 -117 -279 -203 -45 -94 -46 -211 -3 -304
26 -55 110 -133 189 -174 38 -20 123 -53 189 -74 145 -45 239 -88 265 -122 71
-89 39 -207 -69 -255 -58 -26 -205 -27 -270 -3 -94 34 -150 105 -151 189 l0
37 -116 0 -117 0 6 -52 c24 -231 238 -388 526 -388 203 0 375 99 431 248 18
46 21 73 18 142 -3 73 -9 94 -38 148 -58 110 -152 170 -386 246 -224 74 -284
120 -284 217 0 93 78 158 201 167 166 12 265 -56 284 -195 l7 -53 109 0 109 0
0 43 c0 100 -61 224 -141 289 -95 77 -197 109 -345 107 -55 -1 -115 -5 -135
-10z"/>
<path d="M3560 3245 c-86 -24 -150 -60 -210 -117 -66 -62 -108 -133 -147 -243
-27 -78 -27 -86 -28 -295 0 -175 3 -227 18 -280 41 -151 141 -287 256 -349 70
-37 170 -61 257 -61 70 0 193 29 255 61 67 34 153 122 188 193 33 68 67 204
53 218 -5 5 -55 7 -112 6 l-103 -3 -13 -57 c-22 -96 -64 -162 -122 -192 -50
-26 -148 -38 -205 -26 -146 31 -223 137 -248 342 -14 110 -6 288 16 373 31
118 77 181 165 227 37 19 60 23 130 23 151 0 221 -56 259 -205 l19 -75 112 -3
112 -3 -7 43 c-31 203 -132 344 -288 404 -60 22 -91 27 -187 30 -82 3 -131 -1
-170 -11z"/>
<path d="M1287 3078 c-36 -95 -111 -292 -167 -438 -55 -146 -139 -364 -185
-485 -47 -121 -85 -224 -85 -228 0 -4 51 -7 114 -7 l114 0 46 128 c26 70 52
143 59 162 l13 35 249 0 250 0 59 -162 59 -163 114 0 c62 0 113 4 113 8 0 4
-49 136 -109 292 -60 157 -150 393 -200 525 -51 132 -115 300 -143 373 l-51
132 -92 0 -92 0 -66 -172z m248 -395 c46 -125 81 -231 78 -235 -4 -8 -343 -12
-343 -4 0 3 50 140 162 449 6 15 13 26 15 23 3 -3 43 -108 88 -233z"/>
</g>
</svg>
